<svg width="98" height="98" viewBox="0 0 98 98" fill="none" xmlns="http://www.w3.org/2000/svg">
<circle cx="49" cy="49" r="49" fill="white"/>
<path d="M32.9032 70.556L20.282 40.9768C19.4665 39.0864 18.892 37.5667 18.5584 36.4176C18.2248 35.2315 18.0024 34.2307 17.8912 33.4152C17.3723 33.4523 16.8533 33.4708 16.3344 33.4708C15.8155 33.4708 15.2965 33.4893 14.7776 33.5264V31.08H27.6768L27.6212 32.9704C25.7679 33.0816 24.6559 33.6561 24.2852 34.694C23.9145 35.6948 24.0999 37.1219 24.8412 38.9752C25.7308 41.1621 26.5833 43.2749 27.3988 45.3136C28.2143 47.3523 29.1224 49.5577 30.1232 51.93C31.0128 54.0057 31.8653 56.0073 32.6808 57.9348C33.5333 59.8252 34.182 61.4005 34.6268 62.6608H34.738C35.1457 61.3635 35.5535 60.1217 35.9612 58.9356C36.406 57.7495 36.9249 56.3409 37.518 54.71C38.63 51.5964 39.5567 48.9647 40.298 46.8148C41.0764 44.6649 41.7436 42.8301 42.2996 41.3104C42.8556 39.7907 43.3189 38.4933 43.6896 37.4184C44.0232 36.4547 44.3197 35.6392 44.5792 34.972C44.8387 34.3048 45.0796 33.7488 45.302 33.304C44.5977 33.3411 43.8935 33.3781 43.1892 33.4152C42.4849 33.4523 41.7621 33.4893 41.0208 33.5264V31.08H52.3076V32.9148C50.6767 32.9889 49.4164 33.4152 48.5268 34.1936C47.6743 34.972 46.8959 36.362 46.1916 38.3636C46.1175 38.5489 46.0248 38.8084 45.9136 39.142C45.8024 39.4385 45.6171 39.9389 45.3576 40.6432C45.0981 41.3475 44.7275 42.3853 44.2456 43.7568C43.7637 45.0912 43.0965 46.9075 42.244 49.2056C41.4285 51.5037 40.3721 54.3949 39.0748 57.8792C37.8145 61.3635 36.2763 65.5891 34.46 70.556H32.9032ZM76.2334 42.8672C76.1222 41.088 75.6959 39.4015 74.9546 37.8076C74.2133 36.2137 73.1383 34.9164 71.7298 33.9156C70.3213 32.9148 68.5235 32.4144 66.3366 32.4144C64.0385 32.4144 62.2778 33.0631 61.0546 34.3604C59.8314 35.6577 59.2198 37.1775 59.2198 38.9196C59.2198 40.4764 59.6646 41.7923 60.5542 42.8672C61.4438 43.9051 62.5929 44.8317 64.0014 45.6472C65.447 46.4256 66.9667 47.1855 68.5606 47.9268C69.9691 48.5569 71.3777 49.2427 72.7862 49.984C74.1947 50.6883 75.4735 51.5037 76.6226 52.4304C77.7717 53.3571 78.6798 54.4691 79.347 55.7664C80.0513 57.0267 80.4034 58.5464 80.4034 60.3256C80.4034 63.4021 79.2729 65.9412 77.0118 67.9428C74.7507 69.9073 71.5445 70.8896 67.393 70.8896C65.725 70.8896 64.0014 70.6487 62.2222 70.1668C60.443 69.6849 58.8677 68.9807 57.4962 68.054L57.7742 70.4448H54.883L54.5494 58.602H56.7178C56.9031 61.8639 58.0337 64.3473 60.1094 66.0524C62.1851 67.7204 64.6871 68.5544 67.6154 68.5544C69.061 68.5544 70.3954 68.2949 71.6186 67.776C72.8418 67.22 73.8055 66.4231 74.5098 65.3852C75.2511 64.3473 75.6218 63.0871 75.6218 61.6044C75.6218 59.9364 75.177 58.5464 74.2874 57.4344C73.3978 56.3224 72.2487 55.3587 70.8402 54.5432C69.4317 53.7277 67.9305 52.9493 66.3366 52.208C64.9281 51.5779 63.5381 50.9107 62.1666 50.2064C60.7951 49.5021 59.5349 48.7052 58.3858 47.8156C57.2738 46.8889 56.3657 45.7955 55.6614 44.5352C54.9942 43.2749 54.6606 41.7552 54.6606 39.976C54.6606 39.0123 54.8274 37.9744 55.161 36.8624C55.4946 35.7504 56.0691 34.694 56.8846 33.6932C57.7371 32.6553 58.8862 31.8213 60.3318 31.1912C61.8145 30.524 63.6863 30.1904 65.9474 30.1904C67.3559 30.1904 68.9313 30.3943 70.6734 30.802C72.4526 31.1727 74.1021 31.914 75.6218 33.026L75.3994 30.6352H78.235V42.8672H76.2334Z" fill="#160B38"/>
</svg>
